<svg width="34" height="34" viewBox="0 0 34 34" fill="none" xmlns="http://www.w3.org/2000/svg">
<path d="M6.99992 0.333252H26.9999C28.768 0.333252 30.4637 1.03563 31.714 2.28587C32.9642 3.53612 33.6666 5.23181 33.6666 6.99992V26.9999C33.6666 28.768 32.9642 30.4637 31.714 31.714C30.4637 32.9642 28.768 33.6666 26.9999 33.6666H6.99992C5.23181 33.6666 3.53612 32.9642 2.28587 31.714C1.03563 30.4637 0.333252 28.768 0.333252 26.9999V6.99992C0.333252 5.23181 1.03563 3.53612 2.28587 2.28587C3.53612 1.03563 5.23181 0.333252 6.99992 0.333252ZM6.99992 3.66659C6.11586 3.66659 5.26802 4.01777 4.6429 4.6429C4.01777 5.26802 3.66659 6.11586 3.66659 6.99992V26.9999C3.66659 27.884 4.01777 28.7318 4.6429 29.3569C5.26802 29.9821 6.11586 30.3333 6.99992 30.3333H26.9999C27.884 30.3333 28.7318 29.9821 29.3569 29.3569C29.9821 28.7318 30.3333 27.884 30.3333 26.9999V6.99992C30.3333 6.11586 29.9821 5.26802 29.3569 4.6429C28.7318 4.01777 27.884 3.66659 26.9999 3.66659H6.99992ZM19.3566 16.9999L24.0716 21.7133C24.3843 22.026 24.56 22.4501 24.56 22.8924C24.56 23.3347 24.3843 23.7589 24.0716 24.0716C23.7589 24.3843 23.3347 24.56 22.8924 24.56C22.4501 24.56 22.026 24.3843 21.7133 24.0716L16.9999 19.3566L12.2866 24.0716C11.9739 24.3843 11.5497 24.56 11.1074 24.56C10.6651 24.56 10.241 24.3843 9.92825 24.0716C9.61552 23.7589 9.43983 23.3347 9.43983 22.8924C9.43983 22.6734 9.48296 22.4566 9.56676 22.2543C9.65057 22.0519 9.7734 21.8681 9.92825 21.7133L14.6433 16.9999L9.92825 12.2866C9.61552 11.9739 9.43983 11.5497 9.43983 11.1074C9.43983 10.8884 9.48296 10.6716 9.56676 10.4693C9.65057 10.2669 9.7734 10.0831 9.92825 9.92825C10.0831 9.7734 10.2669 9.65057 10.4693 9.56676C10.6716 9.48296 10.8884 9.43983 11.1074 9.43983C11.5497 9.43983 11.9739 9.61552 12.2866 9.92825L16.9999 14.6433L21.7133 9.92825C22.026 9.61552 22.4501 9.43983 22.8924 9.43983C23.3347 9.43983 23.7589 9.61552 24.0716 9.92825C24.3843 10.241 24.56 10.6651 24.56 11.1074C24.56 11.5497 24.3843 11.9739 24.0716 12.2866L19.3566 16.9999Z" fill="black"/>
</svg>
